<?xml version="1.0" encoding="UTF-8"?>
<svg version="1.1" xmlns="http://www.w3.org/2000/svg" width="487" height="182">
<path d="M0 0 C160.71 0 321.42 0 487 0 C487 60.06 487 120.12 487 182 C326.29 182 165.58 182 0 182 C0 121.94 0 61.88 0 0 Z " fill="#FDFEFE" transform="translate(0,0)"/>
<path d="M0 0 C17.49 0 34.98 0 53 0 C53 11.88 53 23.76 53 36 C51.68 36.33 50.36 36.66 49 37 C48 36 48 36 47.88647461 33.04077148 C47.89432983 31.10053101 47.89432983 31.10053101 47.90234375 29.12109375 C47.90484131 27.86482178 47.90733887 26.6085498 47.90991211 25.31420898 C47.91901611 23.70489502 47.92812012 22.09558105 47.9375 20.4375 C47.958125 15.343125 47.97875 10.24875 48 5 C33.81 5 19.62 5 5 5 C5 8.3 5 11.6 5 15 C5.83249268 14.98428955 6.66498535 14.9685791 7.52270508 14.95239258 C10.61447856 14.90123358 13.70603618 14.8636352 16.7980957 14.83520508 C18.79327701 14.81271667 20.78826213 14.77459802 22.78320312 14.73632812 C24.03681641 14.72666016 25.29042969 14.71699219 26.58203125 14.70703125 C27.73936768 14.6913208 28.8967041 14.67561035 30.08911133 14.65942383 C33 15 33 15 34.8828125 16.08984375 C36.59028833 19.0092692 36.3354561 21.49896782 36.29296875 24.85546875 C36.28872391 25.51710526 36.28447906 26.17874176 36.28010559 26.86042786 C36.26333693 28.9698691 36.22569099 31.07834846 36.1875 33.1875 C36.17245068 34.61912681 36.1587627 36.05076862 36.14648438 37.48242188 C36.1134403 40.98859288 36.06167167 44.49420254 36 48 C36.53925613 47.83766876 37.07851227 47.67533752 37.6341095 47.50808716 C40.43048695 46.90755071 42.99287971 46.87280236 45.85424805 46.87060547 C47.0319426 46.86745331 48.20963715 46.86430115 49.42301941 46.86105347 C50.68979019 46.8630777 51.95656097 46.86510193 53.26171875 46.8671875 C55.21402153 46.86575241 55.21402153 46.86575241 57.20576477 46.86428833 C59.95530386 46.86281638 62.7048104 46.8649508 65.4543457 46.86962891 C68.98531764 46.87534278 72.51621384 46.87203359 76.04718304 46.86605644 C79.41036778 46.86158549 82.77353185 46.86470984 86.13671875 46.8671875 C87.40956223 46.86516327 88.6824057 46.86313904 89.99382019 46.86105347 C91.74617729 46.86578171 91.74617729 46.86578171 93.53393555 46.87060547 C94.56777878 46.87140106 95.60162201 46.87219666 96.66679382 46.87301636 C99 47 99 47 100 48 C100.10358779 49.52386231 100.13851138 51.05246986 100.14526367 52.57983398 C100.15164352 53.55431992 100.15802338 54.52880585 100.16459656 55.53282166 C100.16626579 57.12339134 100.16626579 57.12339134 100.16796875 58.74609375 C100.17129715 59.82754166 100.17462555 60.90898956 100.17805481 62.02320862 C100.18312877 64.31567966 100.18546299 66.60815812 100.18530273 68.90063477 C100.18748845 72.41890567 100.20563728 75.93686281 100.22460938 79.45507812 C100.22754328 81.67708225 100.22952809 83.89908788 100.23046875 86.12109375 C100.23765427 87.17944931 100.24483978 88.23780487 100.25224304 89.32823181 C100.24916641 90.3058699 100.24608978 91.283508 100.24291992 92.29077148 C100.24434494 93.15379379 100.24576996 94.0168161 100.24723816 94.9059906 C100 97 100 97 98 99 C95.41935871 99.14497985 92.95056116 99.18677545 90.375 99.125 C89.31539063 99.11146484 89.31539063 99.11146484 88.234375 99.09765625 C86.48943902 99.07407603 84.74467705 99.03820461 83 99 C83.061875 99.928125 83.12375 100.85625 83.1875 101.8125 C83 105 83 105 81.87573242 106.6809082 C79.16009432 108.59065604 77.09454801 108.33935983 73.80078125 108.29296875 C72.59228516 108.28330078 71.38378906 108.27363281 70.13867188 108.26367188 C68.2447168 108.2259668 68.2447168 108.2259668 66.3125 108.1875 C64.40114258 108.16719727 64.40114258 108.16719727 62.45117188 108.14648438 C59.30035943 108.11108199 56.15038955 108.0616979 53 108 C53.00523682 109.11560303 53.01047363 110.23120605 53.01586914 111.38061523 C53.03391775 115.50479333 53.04543149 119.62896791 53.05493164 123.75317383 C53.05997218 125.54094021 53.06680454 127.32870245 53.07543945 129.11645508 C53.0875173 131.68051168 53.09323094 134.24451397 53.09765625 136.80859375 C53.10281754 137.6127623 53.10797882 138.41693085 53.11329651 139.24546814 C53.11349215 141.16401715 53.06201983 143.08245368 53 145 C52 146 52 146 48.40234375 146.09765625 C46.91403133 146.0909822 45.42573568 146.07902183 43.9375 146.0625 C43.17888672 146.05798828 42.42027344 146.05347656 41.63867188 146.04882812 C39.75908129 146.0370068 37.87953101 146.01907078 36 146 C36.04125 147.11375 36.0825 148.2275 36.125 149.375 C36 153 36 153 34 155 C32.14723206 155.26069641 32.14723206 155.26069641 29.87329102 155.2746582 C29.02223282 155.28419022 28.17117462 155.29372223 27.29432678 155.30354309 C26.37348801 155.30263168 25.45264923 155.30172028 24.50390625 155.30078125 C23.55942123 155.30506638 22.61493622 155.3093515 21.64183044 155.31376648 C19.64200645 155.31951586 17.64216155 155.32000558 15.64233398 155.31567383 C12.57825096 155.31251623 9.51513525 155.33595726 6.45117188 155.36132812 C4.51041789 155.36360125 2.5696613 155.36430456 0.62890625 155.36328125 C-0.74931557 155.37709587 -0.74931557 155.37709587 -2.15538025 155.39118958 C-3.43669579 155.38184639 -3.43669579 155.38184639 -4.74389648 155.37231445 C-5.49509262 155.37294388 -6.24628876 155.3735733 -7.02024841 155.3742218 C-9.59679932 154.88719023 -10.46696925 154.10802876 -12 152 C-12.38526917 150.09617615 -12.38526917 150.09617615 -12.40063477 147.92749023 C-12.42064293 146.70623695 -12.42064293 146.70623695 -12.4410553 145.46031189 C-12.44117111 144.5852449 -12.44128693 143.71017792 -12.44140625 142.80859375 C-12.45461411 141.9075441 -12.46782196 141.00649445 -12.48143005 140.07814026 C-12.52236367 137.19789529 -12.54401236 134.31797033 -12.5625 131.4375 C-12.58625493 128.55355596 -12.61431412 125.66991483 -12.65428162 122.78614807 C-12.67871367 120.99111998 -12.69351109 119.19593059 -12.69789124 117.40074158 C-12.53085742 112.71820274 -12.53085742 112.71820274 -15 109 C-17.97450455 108.79051191 -20.863423 108.69885427 -23.83984375 108.69140625 C-25.6425814 108.66624889 -27.44531569 108.64085082 -29.24804688 108.61523438 C-32.09658973 108.58646121 -34.94507451 108.56245015 -37.79370117 108.54370117 C-40.53855502 108.52208815 -43.28272517 108.48265376 -46.02734375 108.44140625 C-47.30713356 108.44123253 -47.30713356 108.44123253 -48.61277771 108.4410553 C-49.40692581 108.42771652 -50.20107391 108.41437775 -51.01928711 108.40063477 C-51.71718857 108.39556412 -52.41509003 108.39049347 -53.13414001 108.38526917 C-55.61965648 107.87205121 -56.49985396 107.02623537 -58 105 C-58.29847993 101.95137475 -58.42021845 99.11139905 -58.3984375 96.0625 C-58.40130768 95.18601807 -58.40417786 94.30953613 -58.40713501 93.40649414 C-58.40917598 91.55386712 -58.40364378 89.70121858 -58.39111328 87.84863281 C-58.37505984 85.01057821 -58.39096055 82.17394773 -58.41015625 79.3359375 C-58.40817382 77.53645519 -58.40433016 75.73697376 -58.3984375 73.9375 C-58.40451019 73.08744385 -58.41058289 72.2373877 -58.4168396 71.36157227 C-58.34590029 65.42835612 -58.34590029 65.42835612 -56.60342407 63.27050781 C-53.70456758 60.97353605 -50.56474129 61.82468485 -47 62 C-47.01160156 61.00097656 -47.02320313 60.00195312 -47.03515625 58.97265625 C-47.04417969 57.68230469 -47.05320312 56.39195313 -47.0625 55.0625 C-47.07410156 53.77472656 -47.08570313 52.48695312 -47.09765625 51.16015625 C-47 48 -47 48 -46 47 C-43.47905924 46.91152257 -40.98569107 46.88472699 -38.46484375 46.90234375 C-37.33496788 46.90446617 -37.33496788 46.90446617 -36.18226624 46.90663147 C-33.7673044 46.91224624 -31.35243399 46.92480117 -28.9375 46.9375 C-27.30403779 46.9425131 -25.67057414 46.94707634 -24.03710938 46.95117188 C-20.02470415 46.96222046 -16.01236759 46.97949494 -12 47 C-12.01571045 46.13721436 -12.0314209 45.27442871 -12.04760742 44.38549805 C-12.09875955 41.18190733 -12.1363616 37.97852485 -12.16479492 34.7746582 C-12.17987397 33.38852081 -12.2003405 32.00243106 -12.22631836 30.61645508 C-12.26273716 28.62341854 -12.27813018 26.63003277 -12.29296875 24.63671875 C-12.3086792 23.43748779 -12.32438965 22.23825684 -12.34057617 21.00268555 C-12 18 -12 18 -10.62304688 16.10351562 C-8.4267208 14.61022533 -6.94130957 14.69820393 -4.3125 14.8125 C-2.889375 14.874375 -1.46625 14.93625 0 15 C0 10.05 0 5.1 0 0 Z " fill="#56C7B1" transform="translate(64,23)"/>
<path d="M0 0 C17.49 0 34.98 0 53 0 C53 11.88 53 23.76 53 36 C51.68 36.33 50.36 36.66 49 37 C48 36 48 36 47.88647461 33.04077148 C47.89432983 31.10053101 47.89432983 31.10053101 47.90234375 29.12109375 C47.90484131 27.86482178 47.90733887 26.6085498 47.90991211 25.31420898 C47.91901611 23.70489502 47.92812012 22.09558105 47.9375 20.4375 C47.958125 15.343125 47.97875 10.24875 48 5 C33.81 5 19.62 5 5 5 C5.01160156 8.30902344 5.02320313 11.61804688 5.03515625 15.02734375 C5.04294581 18.21769108 5.04902314 21.40803737 5.05493164 24.59838867 C5.05997317 26.82267732 5.06680623 29.04696263 5.07543945 31.27124023 C5.08751298 34.46078309 5.09322996 37.65028229 5.09765625 40.83984375 C5.10281754 41.84087631 5.10797882 42.84190887 5.11329651 43.87327576 C5.11337204 44.79415482 5.11344757 45.71503387 5.11352539 46.66381836 C5.115746 47.47878281 5.11796661 48.29374725 5.12025452 49.13340759 C5 51 5 51 4 52 C2.58774954 52.0928726 1.17091066 52.11746772 -0.24438477 52.11352539 C-1.14524307 52.11344986 -2.04610138 52.11337433 -2.97425842 52.11329651 C-3.95341721 52.10813522 -4.93257599 52.10297394 -5.94140625 52.09765625 C-6.93881332 52.0962413 -7.9362204 52.09482635 -8.96385193 52.09336853 C-12.16343124 52.08775114 -15.36294169 52.07519571 -18.5625 52.0625 C-20.72591045 52.05748724 -22.88932199 52.05292395 -25.05273438 52.04882812 C-30.36853774 52.03862505 -35.68419139 52.01905308 -41 52 C-41 65.53 -41 79.06 -41 93 C-37.76316406 92.98839844 -34.52632812 92.97679688 -31.19140625 92.96484375 C-28.07055764 92.95705413 -24.94971009 92.95097683 -21.82885742 92.94506836 C-19.65307127 92.94002692 -17.47728853 92.93319393 -15.30151367 92.92456055 C-12.18146933 92.91248662 -9.06146962 92.90676995 -5.94140625 92.90234375 C-4.47266808 92.89460182 -4.47266808 92.89460182 -2.97425842 92.88670349 C-1.62297096 92.88659019 -1.62297096 92.88659019 -0.24438477 92.88647461 C0.55281479 92.884254 1.35001434 92.88203339 2.17137146 92.87974548 C4 93 4 93 5 94 C5.09295815 95.44289787 5.11746513 96.89029785 5.11352539 98.33618164 C5.11344986 99.2570607 5.11337433 100.17793976 5.11329651 101.12672424 C5.10813522 102.12775681 5.10297394 103.12878937 5.09765625 104.16015625 C5.0962413 105.17975937 5.09482635 106.19936249 5.09336853 107.24986267 C5.08775097 110.52077107 5.0751955 113.79161213 5.0625 117.0625 C5.05748726 119.27408756 5.05292396 121.48567618 5.04882812 123.69726562 C5.0386248 129.13155752 5.01905285 134.56570298 5 140 C19.19 140 33.38 140 48 140 C47.98839844 136.69097656 47.97679688 133.38195312 47.96484375 129.97265625 C47.95705419 126.78230892 47.95097686 123.59196263 47.94506836 120.40161133 C47.94002683 118.17732268 47.93319377 115.95303737 47.92456055 113.72875977 C47.91248702 110.53921691 47.90677004 107.34971771 47.90234375 104.16015625 C47.89718246 103.15912369 47.89202118 102.15809113 47.88670349 101.12672424 C47.88662796 100.20584518 47.88655243 99.28496613 47.88647461 98.33618164 C47.884254 97.52121719 47.88203339 96.70625275 47.87974548 95.86659241 C48 94 48 94 49 93 C50.41225046 92.9071274 51.82908934 92.88253228 53.24438477 92.88647461 C54.59567223 92.88658791 54.59567223 92.88658791 55.97425842 92.88670349 C56.95341721 92.89186478 57.93257599 92.89702606 58.94140625 92.90234375 C59.93881332 92.9037587 60.9362204 92.90517365 61.96385193 92.90663147 C65.16343124 92.91224886 68.36294169 92.92480429 71.5625 92.9375 C73.72591045 92.94251276 75.88932199 92.94707605 78.05273438 92.95117188 C83.36853774 92.96137495 88.68419139 92.98094692 94 93 C94 79.47 94 65.94 94 52 C86.95559897 52.05126929 79.91332238 52.11452399 72.86962891 52.20751953 C70.47809844 52.23558687 68.08647767 52.25687151 65.69482422 52.27099609 C62.23879224 52.29262333 58.78383004 52.33937527 55.328125 52.390625 C53.74768402 52.39246796 53.74768402 52.39246796 52.13531494 52.39434814 C40.26236136 52.62384175 29.19201013 56.36356081 20 64 C14.38993063 70.24192018 10.43651331 77.38349694 7 85 C5.68 84.67 4.36 84.34 3 84 C2.47835329 76.15211508 6.38637332 70.39822824 11.26611328 64.45898438 C19.85237144 54.74867262 29.97313522 47.84789442 43.15994263 46.73278809 C46.72623629 46.63850976 50.2803037 46.63623389 53.84765625 46.671875 C55.7872245 46.67468475 55.7872245 46.67468475 57.76597595 46.67755127 C60.47977546 46.68211674 63.19327195 46.69640791 65.90698242 46.71875 C69.39071659 46.74728501 72.87421606 46.75799094 76.35805607 46.7624321 C79.68795915 46.76756915 83.01778106 46.78209766 86.34765625 46.796875 C88.22868797 46.80324982 88.22868797 46.80324982 90.14772034 46.80975342 C91.29659225 46.81936096 92.44546417 46.82896851 93.62915039 46.83886719 C95.15276939 46.84910919 95.15276939 46.84910919 96.70716858 46.85955811 C99 47 99 47 100 48 C100.10358779 49.52386231 100.13851138 51.05246986 100.14526367 52.57983398 C100.15164352 53.55431992 100.15802338 54.52880585 100.16459656 55.53282166 C100.16626579 57.12339134 100.16626579 57.12339134 100.16796875 58.74609375 C100.17129715 59.82754166 100.17462555 60.90898956 100.17805481 62.02320862 C100.18312877 64.31567966 100.18546299 66.60815812 100.18530273 68.90063477 C100.18748845 72.41890567 100.20563728 75.93686281 100.22460938 79.45507812 C100.22754328 81.67708225 100.22952809 83.89908788 100.23046875 86.12109375 C100.23765427 87.17944931 100.24483978 88.23780487 100.25224304 89.32823181 C100.24916641 90.3058699 100.24608978 91.283508 100.24291992 92.29077148 C100.24434494 93.15379379 100.24576996 94.0168161 100.24723816 94.9059906 C100 97 100 97 98 99 C95.41935871 99.14497985 92.95056116 99.18677545 90.375 99.125 C89.31539063 99.11146484 89.31539063 99.11146484 88.234375 99.09765625 C86.48943902 99.07407603 84.74467705 99.03820461 83 99 C83.061875 99.928125 83.12375 100.85625 83.1875 101.8125 C83 105 83 105 81.87573242 106.6809082 C79.16009432 108.59065604 77.09454801 108.33935983 73.80078125 108.29296875 C72.59228516 108.28330078 71.38378906 108.27363281 70.13867188 108.26367188 C68.2447168 108.2259668 68.2447168 108.2259668 66.3125 108.1875 C64.40114258 108.16719727 64.40114258 108.16719727 62.45117188 108.14648438 C59.30035943 108.11108199 56.15038955 108.0616979 53 108 C53.00523682 109.11560303 53.01047363 110.23120605 53.01586914 111.38061523 C53.03391775 115.50479333 53.04543149 119.62896791 53.05493164 123.75317383 C53.05997218 125.54094021 53.06680454 127.32870245 53.07543945 129.11645508 C53.0875173 131.68051168 53.09323094 134.24451397 53.09765625 136.80859375 C53.10281754 137.6127623 53.10797882 138.41693085 53.11329651 139.24546814 C53.11349215 141.16401715 53.06201983 143.08245368 53 145 C52 146 52 146 48.40234375 146.09765625 C46.91403133 146.0909822 45.42573568 146.07902183 43.9375 146.0625 C43.17888672 146.05798828 42.42027344 146.05347656 41.63867188 146.04882812 C39.75908129 146.0370068 37.87953101 146.01907078 36 146 C36.04125 147.11375 36.0825 148.2275 36.125 149.375 C36 153 36 153 34 155 C32.14723206 155.26069641 32.14723206 155.26069641 29.87329102 155.2746582 C29.02223282 155.28419022 28.17117462 155.29372223 27.29432678 155.30354309 C26.37348801 155.30263168 25.45264923 155.30172028 24.50390625 155.30078125 C23.55942123 155.30506638 22.61493622 155.3093515 21.64183044 155.31376648 C19.64200645 155.31951586 17.64216155 155.32000558 15.64233398 155.31567383 C12.57825096 155.31251623 9.51513525 155.33595726 6.45117188 155.36132812 C4.51041789 155.36360125 2.5696613 155.36430456 0.62890625 155.36328125 C-0.74931557 155.37709587 -0.74931557 155.37709587 -2.15538025 155.39118958 C-3.43669579 155.38184639 -3.43669579 155.38184639 -4.74389648 155.37231445 C-5.49509262 155.37294388 -6.24628876 155.3735733 -7.02024841 155.3742218 C-9.59679932 154.88719023 -10.46696925 154.10802876 -12 152 C-12.38526917 150.09617615 -12.38526917 150.09617615 -12.40063477 147.92749023 C-12.42064293 146.70623695 -12.42064293 146.70623695 -12.4410553 145.46031189 C-12.44117111 144.5852449 -12.44128693 143.71017792 -12.44140625 142.80859375 C-12.45461411 141.9075441 -12.46782196 141.00649445 -12.48143005 140.07814026 C-12.52236367 137.19789529 -12.54401236 134.31797033 -12.5625 131.4375 C-12.58625493 128.55355596 -12.61431412 125.66991483 -12.65428162 122.78614807 C-12.67871367 120.99111998 -12.69351109 119.19593059 -12.69789124 117.40074158 C-12.53085742 112.71820274 -12.53085742 112.71820274 -15 109 C-17.97450455 108.79051191 -20.863423 108.69885427 -23.83984375 108.69140625 C-25.6425814 108.66624889 -27.44531569 108.64085082 -29.24804688 108.61523438 C-32.09658973 108.58646121 -34.94507451 108.56245015 -37.79370117 108.54370117 C-40.53855502 108.52208815 -43.28272517 108.48265376 -46.02734375 108.44140625 C-47.30713356 108.44123253 -47.30713356 108.44123253 -48.61277771 108.4410553 C-49.40692581 108.42771652 -50.20107391 108.41437775 -51.01928711 108.40063477 C-51.71718857 108.39556412 -52.41509003 108.39049347 -53.13414001 108.38526917 C-55.61965648 107.87205121 -56.49985396 107.02623537 -58 105 C-58.29847993 101.95137475 -58.42021845 99.11139905 -58.3984375 96.0625 C-58.40130768 95.18601807 -58.40417786 94.30953613 -58.40713501 93.40649414 C-58.40917598 91.55386712 -58.40364378 89.70121858 -58.39111328 87.84863281 C-58.37505984 85.01057821 -58.39096055 82.17394773 -58.41015625 79.3359375 C-58.40817382 77.53645519 -58.40433016 75.73697376 -58.3984375 73.9375 C-58.40451019 73.08744385 -58.41058289 72.2373877 -58.4168396 71.36157227 C-58.34590029 65.42835612 -58.34590029 65.42835612 -56.60342407 63.27050781 C-53.70456758 60.97353605 -50.56474129 61.82468485 -47 62 C-47.01160156 61.00097656 -47.02320313 60.00195312 -47.03515625 58.97265625 C-47.04417969 57.68230469 -47.05320312 56.39195313 -47.0625 55.0625 C-47.07410156 53.77472656 -47.08570313 52.48695312 -47.09765625 51.16015625 C-47 48 -47 48 -46 47 C-43.47905924 46.91152257 -40.98569107 46.88472699 -38.46484375 46.90234375 C-37.33496788 46.90446617 -37.33496788 46.90446617 -36.18226624 46.90663147 C-33.7673044 46.91224624 -31.35243399 46.92480117 -28.9375 46.9375 C-27.30403779 46.9425131 -25.67057414 46.94707634 -24.03710938 46.95117188 C-20.02470415 46.96222046 -16.01236759 46.97949494 -12 47 C-12.01571045 46.13721436 -12.0314209 45.27442871 -12.04760742 44.38549805 C-12.09875955 41.18190733 -12.1363616 37.97852485 -12.16479492 34.7746582 C-12.17987397 33.38852081 -12.2003405 32.00243106 -12.22631836 30.61645508 C-12.26273716 28.62341854 -12.27813018 26.63003277 -12.29296875 24.63671875 C-12.3086792 23.43748779 -12.32438965 22.23825684 -12.34057617 21.00268555 C-12 18 -12 18 -10.62304688 16.10351562 C-8.4267208 14.61022533 -6.94130957 14.69820393 -4.3125 14.8125 C-2.889375 14.874375 -1.46625 14.93625 0 15 C0 10.05 0 5.1 0 0 Z " fill="#165051" transform="translate(64,23)"/>
<path d="M0 0 C4.64064472 -0.09997246 9.28064272 -0.17197966 13.92211914 -0.21972656 C15.49612365 -0.23966084 17.07005589 -0.26681871 18.64379883 -0.30175781 C39.75230307 -0.7581579 39.75230307 -0.7581579 47.22192383 6.01464844 C54.5398665 13.90820326 54.60137371 20.67877129 54.375 31.046875 C53.97293631 38.71480389 51.3169347 44.02485697 45.875 49.375 C36.36015171 56.34989019 26.10585692 56.52662526 14.8125 56.25 C13.36916569 56.22988384 11.92580399 56.2116422 10.48242188 56.1953125 C6.9877007 56.1517684 3.4940326 56.08303158 0 56 C0 54.35 0 52.7 0 51 C1.98 50.34 3.96 49.68 6 49 C6.33 34.81 6.66 20.62 7 6 C4.69 5.67 2.38 5.34 0 5 C0 3.35 0 1.7 0 0 Z " fill="#FAC268" transform="translate(190,11)"/>
<path d="M0 0 C7.26 0 14.52 0 22 0 C26.5 11.25 26.5 11.25 27.921875 15.5703125 C28.22480469 16.48554688 28.52773438 17.40078125 28.83984375 18.34375 C29.14019531 19.2615625 29.44054687 20.179375 29.75 21.125 C30.06582031 22.08148438 30.38164062 23.03796875 30.70703125 24.0234375 C31.47415429 26.34805276 32.23843282 28.67355994 33 31 C35.02796578 27.95805132 36.10439247 25.26506378 37.34765625 21.8359375 C37.78787109 20.63195312 38.22808594 19.42796875 38.68164062 18.1875 C39.14227236 16.91679178 39.6025547 15.64595685 40.0625 14.375 C40.96675859 11.88158189 41.87498483 9.38971434 42.78515625 6.8984375 C43.38662476 5.23820557 43.38662476 5.23820557 44.00024414 3.54443359 C45 1 45 1 46 0 C47.56172745 -0.08685603 49.12729344 -0.10702219 50.69140625 -0.09765625 C51.63564453 -0.09443359 52.57988281 -0.09121094 53.55273438 -0.08789062 C54.54595703 -0.07951172 55.53917969 -0.07113281 56.5625 -0.0625 C57.55958984 -0.05798828 58.55667969 -0.05347656 59.58398438 -0.04882812 C62.05604849 -0.03700007 64.52799518 -0.02051849 67 0 C67 1.65 67 3.3 67 5 C65.02 5.66 63.04 6.32 61 7 C60.61730988 21.07449206 61.79365689 34.98588647 63 49 C64.98 49.66 66.96 50.32 69 51 C69 52.65 69 54.3 69 56 C60.42 56 51.84 56 43 56 C43 54.35 43 52.7 43 51 C45.31 50.67 47.62 50.34 50 50 C49.69164958 45.47887367 49.37758319 40.95816171 49.0625 36.4375 C48.93198242 34.52227539 48.93198242 34.52227539 48.79882812 32.56835938 C48.66831055 30.70727539 48.66831055 30.70727539 48.53515625 28.80859375 C48.456604 27.67220459 48.37805176 26.53581543 48.29711914 25.36499023 C47.98988177 21.88540709 47.52399969 18.45302358 47 15 C46.67201416 15.89831543 46.34402832 16.79663086 46.00610352 17.72216797 C44.79033413 21.05105428 43.57301535 24.37937221 42.35522461 27.70751953 C41.82810783 29.14877076 41.30141288 30.59017633 40.77514648 32.03173828 C40.01917261 34.10229443 39.26168965 36.17229303 38.50390625 38.2421875 C38.26845596 38.88807831 38.03300568 39.53396912 37.79042053 40.19943237 C36.94032069 42.51809859 36.10544695 44.7891061 35 47 C32.03 47 29.06 47 26 47 C24.9343404 44.14698049 23.87247579 41.29263148 22.8125 38.4375 C22.52052734 37.65697266 22.22855469 36.87644531 21.92773438 36.07226562 C19.09626729 28.43034909 16.58245002 20.74735006 14 13 C13.34 25.21 12.68 37.42 12 50 C15.465 50.495 15.465 50.495 19 51 C19 52.65 19 54.3 19 56 C12.07 56 5.14 56 -2 56 C-2 54.35 -2 52.7 -2 51 C-0.02 50.34 1.96 49.68 4 49 C4.2909303 45.10842038 4.57540925 41.21642218 4.85449219 37.32397461 C4.99611993 35.36613744 5.1425241 33.40864762 5.2890625 31.45117188 C5.87095028 23.28396131 6.12485053 15.18724709 6 7 C4.02 6.34 2.04 5.68 0 5 C0 3.35 0 1.7 0 0 Z " fill="#FAC268" transform="translate(254,11)"/>
<path d="M0 0 C0.33 11.55 0.66 23.1 1 35 C16.18 35.33 31.36 35.66 47 36 C47.33 51.51 47.66 67.02 48 83 C65.325 83.495 65.325 83.495 83 84 C83 86.31 83 88.62 83 91 C80.61732644 93.38267356 80.1148657 93.25475523 76.87329102 93.2746582 C76.02223282 93.28419022 75.17117462 93.29372223 74.29432678 93.30354309 C72.91306862 93.30217598 72.91306862 93.30217598 71.50390625 93.30078125 C70.55942123 93.30506638 69.61493622 93.3093515 68.64183044 93.31376648 C66.64200645 93.31951586 64.64216155 93.32000558 62.64233398 93.31567383 C59.57825096 93.31251623 56.51513525 93.33595726 53.45117188 93.36132812 C51.51041789 93.36360125 49.5696613 93.36430456 47.62890625 93.36328125 C46.25068443 93.37709587 46.25068443 93.37709587 44.84461975 93.39118958 C43.99040939 93.38496078 43.13619904 93.37873199 42.25610352 93.37231445 C41.50490738 93.37294388 40.75371124 93.3735733 39.97975159 93.3742218 C37.40320068 92.88719023 36.53303075 92.10802876 35 90 C34.61473083 88.09617615 34.61473083 88.09617615 34.59936523 85.92749023 C34.57935707 84.70623695 34.57935707 84.70623695 34.5589447 83.46031189 C34.55882889 82.5852449 34.55871307 81.71017792 34.55859375 80.80859375 C34.54538589 79.9075441 34.53217804 79.00649445 34.51856995 78.07814026 C34.47763633 75.19789529 34.45598764 72.31797033 34.4375 69.4375 C34.41374507 66.55355596 34.38568588 63.66991483 34.34571838 60.78614807 C34.32128633 58.99111998 34.30648891 57.19593059 34.30210876 55.40074158 C34.46914258 50.71820274 34.46914258 50.71820274 32 47 C29.02549545 46.79051191 26.136577 46.69885427 23.16015625 46.69140625 C21.3574186 46.66624889 19.55468431 46.64085082 17.75195312 46.61523438 C14.90341027 46.58646121 12.05492549 46.56245015 9.20629883 46.54370117 C6.46144498 46.52208815 3.71727483 46.48265376 0.97265625 46.44140625 C-0.30713356 46.44123253 -0.30713356 46.44123253 -1.61277771 46.4410553 C-2.40692581 46.42771652 -3.20107391 46.41437775 -4.01928711 46.40063477 C-4.71718857 46.39556412 -5.41509003 46.39049347 -6.13414001 46.38526917 C-8.61965648 45.87205121 -9.49985396 45.02623537 -11 43 C-11.29847993 39.95137475 -11.42021845 37.11139905 -11.3984375 34.0625 C-11.40130768 33.18601807 -11.40417786 32.30953613 -11.40713501 31.40649414 C-11.40917598 29.55386712 -11.40364378 27.70121858 -11.39111328 25.84863281 C-11.37505984 23.01057821 -11.39096055 20.17394773 -11.41015625 17.3359375 C-11.40817382 15.53645519 -11.40433016 13.73697376 -11.3984375 11.9375 C-11.40451019 11.08744385 -11.41058289 10.2373877 -11.4168396 9.36157227 C-11.34787619 3.59361694 -11.34787619 3.59361694 -9.97573853 1.25219727 C-8 0 -8 0 0 0 Z " fill="#57C7B0" transform="translate(17,85)"/>
<path d="M0 0 C8.58 0 17.16 0 26 0 C26 1.65 26 3.3 26 5 C23.69 5.33 21.38 5.66 19 6 C19 11.94 19 17.88 19 24 C25.93 24 32.86 24 40 24 C40 18.06 40 12.12 40 6 C38.02 5.67 36.04 5.34 34 5 C34 3.35 34 1.7 34 0 C42.25 0 50.5 0 59 0 C59 1.65 59 3.3 59 5 C57.02 5.66 55.04 6.32 53 7 C53 20.86 53 34.72 53 49 C54.98 49.66 56.96 50.32 59 51 C59 52.65 59 54.3 59 56 C50.75 56 42.5 56 34 56 C34 54.35 34 52.7 34 51 C36.97 50.505 36.97 50.505 40 50 C40 43.73 40 37.46 40 31 C33.07 31 26.14 31 19 31 C19 37.27 19 43.54 19 50 C22.465 50.495 22.465 50.495 26 51 C26 52.65 26 54.3 26 56 C17.42 56 8.84 56 0 56 C0 54.35 0 52.7 0 51 C1.98 50.34 3.96 49.68 6 49 C6 35.14 6 21.28 6 7 C4.02 6.34 2.04 5.68 0 5 C0 3.35 0 1.7 0 0 Z " fill="#FAC268" transform="translate(123,11)"/>
<path d="M0 0 C1.11890625 -0.01417969 2.2378125 -0.02835938 3.390625 -0.04296875 C6.82764584 0.19282687 9.54530445 0.95903337 12.75 2.1875 C13.08 1.5275 13.41 0.8675 13.75 0.1875 C15.4 0.1875 17.05 0.1875 18.75 0.1875 C19.08848652 2.08242006 19.42056911 3.97848466 19.75 5.875 C19.935625 6.93074219 20.12125 7.98648437 20.3125 9.07421875 C20.70068074 11.83654062 20.83259976 14.40492043 20.75 17.1875 C17.78 17.6825 17.78 17.6825 14.75 18.1875 C14.34007812 17.54941406 13.93015625 16.91132813 13.5078125 16.25390625 C12.96898437 15.42761719 12.43015625 14.60132813 11.875 13.75 C11.34132813 12.92628906 10.80765625 12.10257813 10.2578125 11.25390625 C8.91165694 9.07711129 8.91165694 9.07711129 6.75 8.1875 C5.08654418 8.06667466 3.41779409 8.0121206 1.75 8 C0.863125 7.98582031 -0.02375 7.97164062 -0.9375 7.95703125 C-3.44519984 7.96036874 -3.44519984 7.96036874 -5.25 10.1875 C-5.49253813 12.39822977 -5.49253813 12.39822977 -5.375 14.8125 C-5.34792969 16.03839844 -5.34792969 16.03839844 -5.3203125 17.2890625 C-5.29710937 17.91554688 -5.27390625 18.54203125 -5.25 19.1875 C-4.59 19.45046875 -3.93 19.7134375 -3.25 19.984375 C-2.26 20.38140625 -1.27 20.7784375 -0.25 21.1875 C0.35457031 21.42662109 0.95914062 21.66574219 1.58203125 21.91210938 C3.64561037 22.73631997 5.69773416 23.58554462 7.75 24.4375 C8.44867188 24.71207031 9.14734375 24.98664062 9.8671875 25.26953125 C15.49993576 27.63953665 18.95608865 30.59967731 21.75 36.1875 C22.29360446 41.14232094 22.31437074 45.05875852 20.0625 49.5625 C15.82512308 54.37249542 11.65754643 57.67833486 5.171875 58.5234375 C-1.54186697 58.62159162 -6.37209364 57.43849018 -12.25 54.1875 C-12.25 55.5075 -12.25 56.8275 -12.25 58.1875 C-14.23 58.1875 -16.21 58.1875 -18.25 58.1875 C-19.0820582 52.46709989 -19.37036664 46.96509884 -19.25 41.1875 C-16 40.8125 -16 40.8125 -12.25 41.1875 C-10.0625 44 -10.0625 44 -8.25 47.1875 C-5.26756896 49.96894112 -3.23815122 50.59915748 0.8125 50.5625 C2.09833984 50.57410156 2.09833984 50.57410156 3.41015625 50.5859375 C6.21340664 50.10858935 7.10266151 49.47899008 8.75 47.1875 C9.33333333 43.6875 9.33333333 43.6875 8.75 40.1875 C5.75351585 37.29828855 2.39420686 36.24787292 -1.5 34.9375 C-7.4508347 32.72604116 -12.12336255 30.07918821 -16.25 25.1875 C-18.18795159 19.37364524 -18.27055692 13.26641224 -15.5625 7.75 C-10.60253474 2.25382228 -7.35465492 0.04197862 0 0 Z " fill="#FAC36A" transform="translate(383.25,9.8125)"/>
<path d="M0 0 C1.68526291 0.00424484 1.68526291 0.00424484 3.40457153 0.00857544 C6.98076177 0.01973947 10.5566984 0.04483749 14.1328125 0.0703125 C16.56249637 0.08034717 18.99218419 0.08947217 21.421875 0.09765625 C27.367363 0.11796188 33.31230501 0.15711866 39.2578125 0.1953125 C39.2578125 13.7253125 39.2578125 27.2553125 39.2578125 41.1953125 C35.6278125 41.1953125 31.9978125 41.1953125 28.2578125 41.1953125 C28.24322998 40.35758301 28.22864746 39.51985352 28.21362305 38.65673828 C28.15260543 35.55152348 28.07846185 32.44698133 27.99536133 29.34228516 C27.94571291 27.33648914 27.91127086 25.33033563 27.87695312 23.32421875 C27.84150391 22.06738281 27.80605469 20.81054688 27.76953125 19.515625 C27.74334717 18.35305176 27.71716309 17.19047852 27.69018555 15.99267578 C27.47616089 14.60798096 27.47616089 14.60798096 27.2578125 13.1953125 C23.31016673 10.56354865 19.86946124 10.87991696 15.28515625 10.8515625 C14.40630264 10.8369397 13.52744904 10.82231689 12.6219635 10.80725098 C8.85936894 10.74492849 5.0966104 10.70530898 1.33374023 10.66357422 C-1.41179864 10.62991571 -4.15698377 10.58479094 -6.90234375 10.5390625 C-7.75756119 10.5337854 -8.61277863 10.5285083 -9.49391174 10.52307129 C-15.51656542 10.42093458 -15.51656542 10.42093458 -17.7421875 8.1953125 C-17.8671875 5.0703125 -17.8671875 5.0703125 -17.7421875 2.1953125 C-11.89820488 -0.35206454 -6.24857032 -0.05947041 0 0 Z " fill="#F9FBFB" transform="translate(118.7421875,74.8046875)"/>
<path d="M0 0 C12.68711656 0 12.68711656 0 18 4 C23.96182787 11.3376343 23.56244914 18.86020148 23 28 C21.93774488 33.48311096 20.0671619 38.0524605 16 42 C11 44 11 44 0 44 C0 29.48 0 14.96 0 0 Z " fill="#FEFEFD" transform="translate(209,17)"/>
<path d="M0 0 C8.58 0 17.16 0 26 0 C26 1.65 26 3.3 26 5 C24.02 5.66 22.04 6.32 20 7 C20 20.86 20 34.72 20 49 C21.98 49.66 23.96 50.32 26 51 C26 52.65 26 54.3 26 56 C17.42 56 8.84 56 0 56 C0 54.35 0 52.7 0 51 C3.465 50.505 3.465 50.505 7 50 C7 35.48 7 20.96 7 6 C4.69 5.67 2.38 5.34 0 5 C0 3.35 0 1.7 0 0 Z " fill="#FAC267" transform="translate(330,11)"/>
<path d="M0 0 C2.97 0 5.94 0 9 0 C9 10.56 9 21.12 9 32 C5.04 32 1.08 32 -3 32 C-3.07420211 27.92497206 -3.1286257 23.85020608 -3.16479492 19.7746582 C-3.17987397 18.38852081 -3.2003405 17.00243106 -3.22631836 15.61645508 C-3.26273716 13.62341854 -3.27813018 11.63003277 -3.29296875 9.63671875 C-3.31653442 7.83787231 -3.31653442 7.83787231 -3.34057617 6.00268555 C-3 3 -3 3 0 0 Z " fill="#5AC6B1" transform="translate(55,38)"/>
<path d="M0 0 C2.39706123 -0.10854617 4.78915838 -0.18753157 7.1875 -0.25 C7.86103516 -0.28351563 8.53457031 -0.31703125 9.22851562 -0.3515625 C12.89041975 -0.42301429 14.82150622 -0.11534178 17.92578125 1.890625 C20.76088527 4.77378163 20.96185364 5.61853642 21.375 9.75 C21.34478584 13.06751516 20.77284903 14.85116622 18.6875 17.4375 C14.64073596 21.29604245 11.70715216 21.1159124 6.3125 21.0625 C4.54326172 21.04896484 4.54326172 21.04896484 2.73828125 21.03515625 C1.83464844 21.02355469 0.93101563 21.01195312 0 21 C0 20.34 0 19.68 0 19 C0.66 18.67 1.32 18.34 2 18 C2.31241455 15.28553021 2.51336592 12.66090639 2.625 9.9375 C2.66367188 9.17888672 2.70234375 8.42027344 2.7421875 7.63867188 C2.83673562 5.75952805 2.91946756 3.87979664 3 2 C2.01 2 1.02 2 0 2 C0 1.34 0 0.68 0 0 Z " fill="#5ACAB3" transform="translate(119,136)"/>
<path d="M0 0 C0 10.56 0 21.12 0 32 C-3.63 32 -7.26 32 -11 32 C-11.11605098 27.41687916 -11.18720362 22.83413551 -11.25 18.25 C-11.28351563 16.94804687 -11.31703125 15.64609375 -11.3515625 14.3046875 C-11.36445312 13.05429688 -11.37734375 11.80390625 -11.390625 10.515625 C-11.41157227 9.36352539 -11.43251953 8.21142578 -11.45410156 7.02441406 C-11 4 -11 4 -9.41308594 1.59277344 C-7 0 -7 0 0 0 Z " fill="#FAFDFC" transform="translate(111,131)"/>
<path d="M0 0 C1.32 0 2.64 0 4 0 C4 1.65 4 3.3 4 5 C4.78375 5 5.5675 5 6.375 5 C9.91666667 5 13.45833333 5 17 5 C17 9.62 17 14.24 17 19 C17.99 19 18.98 19 20 19 C20 19.66 20 20.32 20 21 C16 21 12 21 8 21 C6.845 21.04125 5.69 21.0825 4.5 21.125 C1 21 1 21 -1 19 C-1.1953125 16.3984375 -1.1953125 16.3984375 -1.125 13.375 C-1.10695313 12.37210938 -1.08890625 11.36921875 -1.0703125 10.3359375 C-1.04710937 9.56507813 -1.02390625 8.79421875 -1 8 C-1.66 8 -2.32 8 -3 8 C-3 7.01 -3 6.02 -3 5 C-2.34 4.67 -1.68 4.34 -1 4 C-0.34786708 1.97536745 -0.34786708 1.97536745 0 0 Z " fill="#FBFDFD" transform="translate(425,136)"/>
<path d="M0 0 C1.32 0 2.64 0 4 0 C4 1.65 4 3.3 4 5 C4.78375 5 5.5675 5 6.375 5 C9.91666667 5 13.45833333 5 17 5 C17 9.62 17 14.24 17 19 C17.99 19 18.98 19 20 19 C20 19.66 20 20.32 20 21 C16 21 12 21 8 21 C6.845 21.04125 5.69 21.0825 4.5 21.125 C1 21 1 21 -1 19 C-1.1953125 16.3984375 -1.1953125 16.3984375 -1.125 13.375 C-1.10695313 12.37210938 -1.08890625 11.36921875 -1.0703125 10.3359375 C-1.04710937 9.56507813 -1.02390625 8.79421875 -1 8 C-1.66 8 -2.32 8 -3 8 C-3 7.01 -3 6.02 -3 5 C-2.34 4.67 -1.68 4.34 -1 4 C-0.34786708 1.97536745 -0.34786708 1.97536745 0 0 Z " fill="#FBFDFD" transform="translate(384,136)"/>
<path d="M0 0 C14.85 0 29.7 0 45 0 C45 0.33 45 0.66 45 1 C40.05 1 35.1 1 30 1 C30 2.98 30 4.96 30 7 C28.88745117 8.85668945 28.88745117 8.85668945 27 10 C24.1809082 10.34057617 24.1809082 10.34057617 20.80078125 10.29296875 C19.59228516 10.28330078 18.38378906 10.27363281 17.13867188 10.26367188 C15.87603516 10.23853516 14.61339844 10.21339844 13.3125 10.1875 C11.40114258 10.16719727 11.40114258 10.16719727 9.45117188 10.14648438 C6.30035943 10.11108199 3.15038955 10.0616979 0 10 C0 6.7 0 3.4 0 0 Z " fill="#56C0AC" transform="translate(117,121)"/>
<path d="M0 0 C1.32 0 2.64 0 4 0 C4 1.32 4 2.64 4 4 C3.01 4.33 2.02 4.66 1 5 C1.12375 6.1446875 1.12375 6.1446875 1.25 7.3125 C1 10 1 10 -0.625 11.8125 C-3.57202207 13.28601103 -5.74704886 13.22179212 -9 13 C-9 13.66 -9 14.32 -9 15 C-8.38511719 14.97679687 -7.77023438 14.95359375 -7.13671875 14.9296875 C-6.32847656 14.91164062 -5.52023438 14.89359375 -4.6875 14.875 C-3.88699219 14.85179687 -3.08648437 14.82859375 -2.26171875 14.8046875 C0 15 0 15 3 17 C3.4375 19.4375 3.4375 19.4375 3 22 C0.05223697 24.82662208 -2.02849328 25.39159817 -6.0625 25.3125 C-7.34833984 25.30669922 -7.34833984 25.30669922 -8.66015625 25.30078125 C-11 25 -11 25 -14 23 C-13.49396008 20.83125748 -13.00016187 19.00032373 -12 17 C-11.83329727 13.95826106 -11.83329727 13.95826106 -12 11 C-12.33 10.67 -12.66 10.34 -13 10 C-13.46190056 5.61194469 -13.46190056 5.61194469 -11.7734375 3.375 C-9.56305631 1.66122428 -8.14364377 1.54634929 -5.375 1.375 C-2.38851817 1.39122227 -2.38851817 1.39122227 0 0 Z " fill="#65CDB8" transform="translate(166,139)"/>
<path d="M0 0 C9.57 0 19.14 0 29 0 C29 7 29 7 27.8737793 8.91918945 C25.18790471 10.46842291 23.1075251 10.3381589 20.01953125 10.29296875 C18.85615234 10.28330078 17.69277344 10.27363281 16.49414062 10.26367188 C15.27919922 10.23853516 14.06425781 10.21339844 12.8125 10.1875 C11.58595703 10.17396484 10.35941406 10.16042969 9.09570312 10.14648438 C6.06336336 10.11108741 3.03190004 10.0617076 0 10 C0 6.7 0 3.4 0 0 Z " fill="#F8FAFA" transform="translate(23,75)"/>
<path d="M0 0 C2.31 0 4.62 0 7 0 C7 6.93 7 13.86 7 21 C7.66 21 8.32 21 9 21 C9 21.66 9 22.32 9 23 C6.33333333 23 3.66666667 23 1 23 C-0.155 23.061875 -1.31 23.12375 -2.5 23.1875 C-3.655 23.125625 -4.81 23.06375 -6 23 C-8.68086851 18.97869724 -8.68211086 15.72361772 -8 11 C-6.375 8.4375 -6.375 8.4375 -4 7 C-0.75 6.75 -0.75 6.75 2 7 C2 5.35 2 3.7 2 2 C1.34 2 0.68 2 0 2 C0 1.34 0 0.68 0 0 Z " fill="#65CDB8" transform="translate(255,89)"/>
<path d="M0 0 C3.3 0 6.6 0 10 0 C10 0.66 10 1.32 10 2 C9.01 2 8.02 2 7 2 C7 4.31 7 6.62 7 9 C9.97 9 12.94 9 16 9 C16 6.69 16 4.38 16 2 C15.01 2 14.02 2 13 2 C13 1.34 13 0.68 13 0 C16.3 0 19.6 0 23 0 C23 0.66 23 1.32 23 2 C22.01 2 21.02 2 20 2 C20 7.61 20 13.22 20 19 C20.99 19 21.98 19 23 19 C23 19.66 23 20.32 23 21 C19.7 21 16.4 21 13 21 C13 20.34 13 19.68 13 19 C13.99 19 14.98 19 16 19 C16 16.36 16 13.72 16 11 C13.03 11 10.06 11 7 11 C7.25561323 13.3431213 7.59270772 15.67843403 8 18 C8.66 18.33 9.32 18.66 10 19 C10 19.66 10 20.32 10 21 C6.7 21 3.4 21 0 21 C0 20.34 0 19.68 0 19 C0.99 19 1.98 19 3 19 C2.88638398 16.20743781 2.7596411 13.41655882 2.625 10.625 C2.57859375 9.43390625 2.57859375 9.43390625 2.53125 8.21875 C2.48183579 3.63332625 2.48183579 3.63332625 0 0 Z " fill="#5ACAB3" transform="translate(229,136)"/>
<path d="M0 0 C2.31 0 4.62 0 7 0 C7 2.64 7 5.28 7 8 C8.11375 7.79375 9.2275 7.5875 10.375 7.375 C12.169375 7.189375 12.169375 7.189375 14 7 C16 9 16 9 16.1953125 11.8203125 C16.17210937 12.91085938 16.14890625 14.00140625 16.125 15.125 C16.10695313 16.22070312 16.08890625 17.31640625 16.0703125 18.4453125 C16.04710937 19.28835937 16.02390625 20.13140625 16 21 C16.99 21 17.98 21 19 21 C19 21.66 19 22.32 19 23 C16.03 23 13.06 23 10 23 C10 22.34 10 21.68 10 21 C10.66 21 11.32 21 12 21 C11.67 17.7 11.34 14.4 11 11 C10.01 11 9.02 11 8 11 C7.67 14.3 7.34 17.6 7 21 C7.66 21 8.32 21 9 21 C9 21.66 9 22.32 9 23 C6.03 23 3.06 23 0 23 C0 22.34 0 21.68 0 21 C0.66 21 1.32 21 2 21 C2 14.73 2 8.46 2 2 C1.34 2 0.68 2 0 2 C0 1.34 0 0.68 0 0 Z " fill="#65CDB8" transform="translate(311,134)"/>
<path d="M0 0 C1.98 0 3.96 0 6 0 C6.33 0.66 6.66 1.32 7 2 C7.66 1.34 8.32 0.68 9 0 C12 -0.3125 12 -0.3125 15 0 C17.28062828 3.42094242 17.21925007 4.68187222 17.125 8.6875 C17.10695313 9.68136719 17.08890625 10.67523438 17.0703125 11.69921875 C17.04710937 12.45847656 17.02390625 13.21773437 17 14 C17.66 14 18.32 14 19 14 C19 14.66 19 15.32 19 16 C16.03 16 13.06 16 10 16 C10 15.34 10 14.68 10 14 C10.66 14 11.32 14 12 14 C11.67 10.7 11.34 7.4 11 4 C10.01 4 9.02 4 8 4 C7.67 7.3 7.34 10.6 7 14 C7.66 14 8.32 14 9 14 C9 14.66 9 15.32 9 16 C6.03 16 3.06 16 0 16 C0 15.34 0 14.68 0 14 C0.66 14 1.32 14 2 14 C2 10.37 2 6.74 2 3 C1.34 3 0.68 3 0 3 C0 2.01 0 1.02 0 0 Z " fill="#65CDB8" transform="translate(350,141)"/>
<path d="M0 0 C1.98 0 3.96 0 6 0 C6.33 0.66 6.66 1.32 7 2 C7.66 1.34 8.32 0.68 9 0 C12 -0.3125 12 -0.3125 15 0 C17.28062828 3.42094242 17.21925007 4.68187222 17.125 8.6875 C17.10695312 9.68136719 17.08890625 10.67523438 17.0703125 11.69921875 C17.04710937 12.45847656 17.02390625 13.21773437 17 14 C17.66 14 18.32 14 19 14 C19 14.66 19 15.32 19 16 C16.03 16 13.06 16 10 16 C10 15.34 10 14.68 10 14 C10.66 14 11.32 14 12 14 C11.67 10.7 11.34 7.4 11 4 C10.01 4 9.02 4 8 4 C7.67 7.3 7.34 10.6 7 14 C7.66 14 8.32 14 9 14 C9 14.66 9 15.32 9 16 C6.03 16 3.06 16 0 16 C0 15.34 0 14.68 0 14 C0.66 14 1.32 14 2 14 C2 10.37 2 6.74 2 3 C1.34 3 0.68 3 0 3 C0 2.01 0 1.02 0 0 Z " fill="#65CDB8" transform="translate(226,96)"/>
<path d="M0 0 C1.7109375 1.16015625 1.7109375 1.16015625 3 3 C3.29296875 5.69921875 3.29296875 5.69921875 3.1875 8.6875 C3.16042969 9.68136719 3.13335937 10.67523438 3.10546875 11.69921875 C3.07066406 12.45847656 3.03585937 13.21773437 3 14 C3.66 14 4.32 14 5 14 C5 14.66 5 15.32 5 16 C2.68756208 16.02685412 0.3750373 16.04632841 -1.9375 16.0625 C-3.22527344 16.07410156 -4.51304687 16.08570313 -5.83984375 16.09765625 C-9 16 -9 16 -10 15 C-10.04080783 13.00041636 -10.04254356 10.99954746 -10 9 C-7.09399739 7.74335022 -5.20395416 7 -2 7 C-2.26676204 5.01508358 -2.26676204 5.01508358 -3 3 C-3.99 2.67 -4.98 2.34 -6 2 C-6 3.32 -6 4.64 -6 6 C-7.32 6 -8.64 6 -10 6 C-9.625 3.5625 -9.625 3.5625 -9 1 C-5.95016004 -0.52491998 -3.3576631 -0.23562548 0 0 Z " fill="#66CDB8" transform="translate(281,141)"/>
<path d="M0 0 C1.7109375 1.16015625 1.7109375 1.16015625 3 3 C3.29296875 5.69921875 3.29296875 5.69921875 3.1875 8.6875 C3.16042969 9.68136719 3.13335937 10.67523438 3.10546875 11.69921875 C3.07066406 12.45847656 3.03585938 13.21773437 3 14 C3.66 14 4.32 14 5 14 C5 14.66 5 15.32 5 16 C2.68756208 16.02685412 0.3750373 16.04632841 -1.9375 16.0625 C-3.22527344 16.07410156 -4.51304687 16.08570313 -5.83984375 16.09765625 C-9 16 -9 16 -10 15 C-10.04080783 13.00041636 -10.04254356 10.99954746 -10 9 C-7.09399739 7.74335022 -5.20395416 7 -2 7 C-2.26676204 5.01508358 -2.26676204 5.01508358 -3 3 C-3.99 2.67 -4.98 2.34 -6 2 C-6 3.32 -6 4.64 -6 6 C-7.32 6 -8.64 6 -10 6 C-9.625 3.5625 -9.625 3.5625 -9 1 C-5.95016004 -0.52491998 -3.3576631 -0.23562548 0 0 Z " fill="#66CDB8" transform="translate(206,141)"/>
<path d="M0 0 C3.5625 0.3125 3.5625 0.3125 5.2734375 1.4765625 C7.07767669 4.04623649 6.85954525 5.89621803 6.75 9 C6.72292969 9.99386719 6.69585937 10.98773438 6.66796875 12.01171875 C6.63316406 12.77097656 6.59835937 13.53023437 6.5625 14.3125 C7.2225 14.3125 7.8825 14.3125 8.5625 14.3125 C8.5625 14.9725 8.5625 15.6325 8.5625 16.3125 C6.25006208 16.33935412 3.9375373 16.35882841 1.625 16.375 C0.33722656 16.38660156 -0.95054687 16.39820312 -2.27734375 16.41015625 C-5.4375 16.3125 -5.4375 16.3125 -6.4375 15.3125 C-6.75 12.9375 -6.75 12.9375 -6.4375 10.3125 C-4.6875 8.5 -4.6875 8.5 -2.4375 7.3125 C-1.1175 7.3125 0.2025 7.3125 1.5625 7.3125 C1.5625 5.6625 1.5625 4.0125 1.5625 2.3125 C0.2425 2.3125 -1.0775 2.3125 -2.4375 2.3125 C-2.4375 3.6325 -2.4375 4.9525 -2.4375 6.3125 C-3.7575 6.3125 -5.0775 6.3125 -6.4375 6.3125 C-5.55427706 1.8963853 -4.77389749 0.43399068 0 0 Z " fill="#62CCB7" transform="translate(283.4375,95.6875)"/>
<path d="M0 0 C3.05067835 3.05067835 2.43933775 6.39626822 2.65625 10.56640625 C2.7696875 11.36949219 2.883125 12.17257813 3 13 C3.66 13.33 4.32 13.66 5 14 C5 14.66 5 15.32 5 16 C2.33333333 16 -0.33333333 16 -3 16 C-3.99 16.04125 -4.98 16.0825 -6 16.125 C-9 16 -9 16 -11 14 C-10.8125 11.5 -10.8125 11.5 -10 9 C-6.77208445 6.8480563 -5.71599191 6.79913557 -2 7 C-2.26676204 5.01508358 -2.26676204 5.01508358 -3 3 C-3.99 2.67 -4.98 2.34 -6 2 C-6.33 3.32 -6.66 4.64 -7 6 C-7.99 6 -8.98 6 -10 6 C-9.625 3.5625 -9.625 3.5625 -9 1 C-5.98675805 -0.50662097 -3.31713623 -0.17770373 0 0 Z " fill="#60CCB6" transform="translate(416,141)"/>
<path d="M0 0 C2.875 0.4375 2.875 0.4375 5.875 2.4375 C6.0625 6.0625 6.0625 6.0625 5.875 9.4375 C2.905 9.4375 -0.065 9.4375 -3.125 9.4375 C-2.135 10.9225 -2.135 10.9225 -1.125 12.4375 C2.45857241 12.68765873 2.45857241 12.68765873 5.875 12.4375 C5.215 13.7575 4.555 15.0775 3.875 16.4375 C1.0169611 16.67566991 -1.32311145 16.85992213 -4.125 16.4375 C-7.11597304 13.89517292 -7.96702557 12.2800303 -8.6875 8.4375 C-7.73591923 3.36240255 -5.1274566 0.71784392 0 0 Z " fill="#62CCB7" transform="translate(473.125,140.5625)"/>
<path d="M0 0 C2.875 0.4375 2.875 0.4375 5.875 2.4375 C6.0625 6.0625 6.0625 6.0625 5.875 9.4375 C2.905 9.4375 -0.065 9.4375 -3.125 9.4375 C-2.135 10.9225 -2.135 10.9225 -1.125 12.4375 C2.45857241 12.68765873 2.45857241 12.68765873 5.875 12.4375 C5.215 13.7575 4.555 15.0775 3.875 16.4375 C1.0169611 16.67566991 -1.32311145 16.85992213 -4.125 16.4375 C-7.11597304 13.89517292 -7.96702557 12.2800303 -8.6875 8.4375 C-7.73591923 3.36240255 -5.1274566 0.71784392 0 0 Z " fill="#62CCB7" transform="translate(262.125,140.5625)"/>
<path d="M0 0 C2.97 0 5.94 0 9 0 C9 0.66 9 1.32 9 2 C8.34 2 7.68 2 7 2 C7.99 4.64 8.98 7.28 10 10 C11.77759876 5.03079316 11.77759876 5.03079316 11 0 C13.31 0 15.62 0 18 0 C18 0.66 18 1.32 18 2 C17.34 2 16.68 2 16 2 C15.80664062 2.59167969 15.61328125 3.18335938 15.4140625 3.79296875 C14.05585281 7.9146645 12.67949415 11.9950524 11 16 C9.35 16 7.7 16 6 16 C5.18667257 13.89615302 4.37436583 11.79191143 3.5625 9.6875 C3.11003906 8.51574219 2.65757812 7.34398437 2.19140625 6.13671875 C1.42015245 4.10617185 0.68687358 2.06062074 0 0 Z " fill="#64CDB8" transform="translate(446,141)"/>
<path d="M0 0 C2.31 0.33 4.62 0.66 7 1 C9.48386059 4.72579089 9.3804212 6.58711402 9 11 C7.84360194 13.31279611 6.82590172 15.17409828 5 17 C3.35 17 1.7 17 0 17 C0 11.39 0 5.78 0 0 Z " fill="#F7FCFB" transform="translate(126,138)"/>
<path d="M0 0 C1.22589844 0.01353516 1.22589844 0.01353516 2.4765625 0.02734375 C3.41628906 0.04474609 3.41628906 0.04474609 4.375 0.0625 C4.375 1.7125 4.375 3.3625 4.375 5.0625 C3.385 5.0625 2.395 5.0625 1.375 5.0625 C1.045 4.4025 0.715 3.7425 0.375 3.0625 C-1.64963255 2.41036708 -1.64963255 2.41036708 -3.625 2.0625 C-3.295 3.0525 -2.965 4.0425 -2.625 5.0625 C0.87794871 6.77817661 0.87794871 6.77817661 4.375 8.0625 C4.5 10.9375 4.5 10.9375 4.375 14.0625 C2.375 16.0625 2.375 16.0625 -0.0078125 16.2578125 C-0.91273438 16.23460938 -1.81765625 16.21140625 -2.75 16.1875 C-4.11511719 16.16042969 -4.11511719 16.16042969 -5.5078125 16.1328125 C-6.20648438 16.10960938 -6.90515625 16.08640625 -7.625 16.0625 C-7.625 14.4125 -7.625 12.7625 -7.625 11.0625 C-6.635 11.0625 -5.645 11.0625 -4.625 11.0625 C-4.295 11.7225 -3.965 12.3825 -3.625 13.0625 C-1.60036745 13.71463292 -1.60036745 13.71463292 0.375 14.0625 C0.045 13.0725 -0.285 12.0825 -0.625 11.0625 C-2.27051962 10.34522222 -3.93922289 9.67924772 -5.625 9.0625 C-6.285 8.4025 -6.945 7.7425 -7.625 7.0625 C-7.375 4 -7.375 4 -6.625 1.0625 C-4.21954362 -0.14022819 -2.67503047 -0.03821472 0 0 Z " fill="#60CCB6" transform="translate(309.625,95.9375)"/>
<path d="M0 0 C1.32 0 2.64 0 4 0 C4 1.65 4 3.3 4 5 C5.32 5 6.64 5 8 5 C8 5.99 8 6.98 8 8 C6.68 8 5.36 8 4 8 C4 11.3 4 14.6 4 18 C5.65 18 7.3 18 9 18 C8.67 18.99 8.34 19.98 8 21 C4.625 21.125 4.625 21.125 1 21 C-1 19 -1 19 -1.1953125 16.3984375 C-1.17210937 15.40070313 -1.14890625 14.40296875 -1.125 13.375 C-1.10695313 12.37210938 -1.08890625 11.36921875 -1.0703125 10.3359375 C-1.04710937 9.56507813 -1.02390625 8.79421875 -1 8 C-1.66 8 -2.32 8 -3 8 C-3 7.01 -3 6.02 -3 5 C-2.34 4.67 -1.68 4.34 -1 4 C-0.34786708 1.97536745 -0.34786708 1.97536745 0 0 Z " fill="#6BCFBB" transform="translate(425,136)"/>
<path d="M0 0 C1.32 0 2.64 0 4 0 C4 1.65 4 3.3 4 5 C5.32 5 6.64 5 8 5 C8 5.99 8 6.98 8 8 C6.68 8 5.36 8 4 8 C4 11.3 4 14.6 4 18 C5.65 18 7.3 18 9 18 C8.67 18.99 8.34 19.98 8 21 C4.625 21.125 4.625 21.125 1 21 C-1 19 -1 19 -1.1953125 16.3984375 C-1.17210937 15.40070313 -1.14890625 14.40296875 -1.125 13.375 C-1.10695313 12.37210938 -1.08890625 11.36921875 -1.0703125 10.3359375 C-1.04710937 9.56507813 -1.02390625 8.79421875 -1 8 C-1.66 8 -2.32 8 -3 8 C-3 7.01 -3 6.02 -3 5 C-2.34 4.67 -1.68 4.34 -1 4 C-0.34786708 1.97536745 -0.34786708 1.97536745 0 0 Z " fill="#6BCFBB" transform="translate(384,136)"/>
<path d="M0 0 C1.32 0 2.64 0 4 0 C4 1.65 4 3.3 4 5 C5.32 5 6.64 5 8 5 C8 5.99 8 6.98 8 8 C6.68 8 5.36 8 4 8 C4 11.3 4 14.6 4 18 C5.65 18 7.3 18 9 18 C9 18.66 9 19.32 9 20 C6.23749964 21.38125018 4.05268901 21.19079306 1 21 C-1 19 -1 19 -1.1953125 16.3984375 C-1.17210937 15.40070313 -1.14890625 14.40296875 -1.125 13.375 C-1.10695313 12.37210938 -1.08890625 11.36921875 -1.0703125 10.3359375 C-1.04710937 9.56507813 -1.02390625 8.79421875 -1 8 C-1.66 8 -2.32 8 -3 8 C-3 7.01 -3 6.02 -3 5 C-2.34 4.67 -1.68 4.34 -1 4 C-0.34786708 1.97536745 -0.34786708 1.97536745 0 0 Z " fill="#6BCFBB" transform="translate(301,136)"/>
<path d="M0 0 C0.99 0 1.98 0 3 0 C3 1.65 3 3.3 3 5 C4.32 5 5.64 5 7 5 C7 5.99 7 6.98 7 8 C5.68 8 4.36 8 3 8 C3 11.3 3 14.6 3 18 C4.65 18 6.3 18 8 18 C7.67 18.99 7.34 19.98 7 21 C3.625 21.125 3.625 21.125 0 21 C-2 19 -2 19 -2.1953125 16.3984375 C-2.17210937 15.40070313 -2.14890625 14.40296875 -2.125 13.375 C-2.10695312 12.37210938 -2.08890625 11.36921875 -2.0703125 10.3359375 C-2.04710937 9.56507813 -2.02390625 8.79421875 -2 8 C-2.66 8 -3.32 8 -4 8 C-3.67 7.01 -3.34 6.02 -3 5 C-2.34 5 -1.68 5 -1 5 C-0.67 3.35 -0.34 1.7 0 0 Z " fill="#68CEB9" transform="translate(186,136)"/>
<path d="M0 0 C3.3 0 6.6 0 10 0 C9.67 0.66 9.34 1.32 9 2 C8.76725791 4.87910588 8.58027243 7.74146495 8.4375 10.625 C8.39431641 11.42679688 8.35113281 12.22859375 8.30664062 13.0546875 C8.20048543 15.0362511 8.09973145 17.01810271 8 19 C8.99 19 9.98 19 11 19 C11 19.66 11 20.32 11 21 C7.7 21 4.4 21 1 21 C1 20.34 1 19.68 1 19 C1.66 19 2.32 19 3 19 C3 13.39 3 7.78 3 2 C2.01 2 1.02 2 0 2 C0 1.34 0 0.68 0 0 Z " fill="#64CDB8" transform="translate(337,136)"/>
<path d="M0 0 C3.3 0 6.6 0 10 0 C9.67 0.66 9.34 1.32 9 2 C8.76725791 4.87910588 8.58027243 7.74146495 8.4375 10.625 C8.39431641 11.42679688 8.35113281 12.22859375 8.30664062 13.0546875 C8.20048543 15.0362511 8.09973145 17.01810271 8 19 C8.99 19 9.98 19 11 19 C11 19.66 11 20.32 11 21 C7.7 21 4.4 21 1 21 C1 20.34 1 19.68 1 19 C1.66 19 2.32 19 3 19 C3 13.39 3 7.78 3 2 C2.01 2 1.02 2 0 2 C0 1.34 0 0.68 0 0 Z " fill="#64CDB8" transform="translate(213,91)"/>
<path d="M0 0 C2.31 0 4.62 0 7 0 C7 6.93 7 13.86 7 21 C7.66 21 8.32 21 9 21 C9 21.66 9 22.32 9 23 C3.375 23.25 3.375 23.25 0 21 C0.33 20.67 0.66 20.34 1 20 C1.02068918 18.29166491 0.9910086 16.58262222 0.9375 14.875 C0.88182468 10.13022547 1.41656122 6.45342157 3 2 C2.01 2 1.02 2 0 2 C0 1.34 0 0.68 0 0 Z " fill="#60CCB6" transform="translate(255,89)"/>
<path d="M0 0 C2.31 0 4.62 0 7 0 C7 6.93 7 13.86 7 21 C7.66 21 8.32 21 9 21 C9 21.66 9 22.32 9 23 C6.03 23 3.06 23 0 23 C0 22.34 0 21.68 0 21 C0.99 21 1.98 21 3 21 C3 14.73 3 8.46 3 2 C2.01 2 1.02 2 0 2 C0 1.34 0 0.68 0 0 Z " fill="#59C9B3" transform="translate(287,134)"/>
<path d="M0 0 C1.98 0 3.96 0 6 0 C6 6.93 6 13.86 6 21 C6.99 21 7.98 21 9 21 C9 21.66 9 22.32 9 23 C6.03 23 3.06 23 0 23 C0 22.34 0 21.68 0 21 C0.66 21 1.32 21 2 21 C2 14.73 2 8.46 2 2 C1.34 2 0.68 2 0 2 C0 1.34 0 0.68 0 0 Z " fill="#58C9B2" transform="translate(213,134)"/>
<path d="M0 0 C0.33 0 0.66 0 1 0 C1 2.31 1 4.62 1 7 C2.32 7 3.64 7 5 7 C5 12.28 5 17.56 5 23 C3.68 23.33 2.36 23.66 1 24 C1 27.96 1 31.92 1 36 C0.67 36 0.34 36 0 36 C0 24.12 0 12.24 0 0 Z " fill="#DEEBE9" transform="translate(117,131)"/>
<path d="M0 0 C3.67852334 0.25080841 5.55599012 0.61441247 8.375 3.0625 C10.43267227 6.78213833 10.93060199 9.89251535 10 14 C8.15433006 17.50979857 6.05447685 19.67194053 2.1875 20.875 C1.465625 20.91625 0.74375 20.9575 0 21 C0.28875 20.50371094 0.5775 20.00742188 0.875 19.49609375 C3.40442078 14.86760503 4.83090498 11.4008824 4 6 C2.10415891 3.68622853 2.10415891 3.68622853 0 2 C0 1.34 0 0.68 0 0 Z " fill="#64CDB7" transform="translate(130,136)"/>
<path d="M0 0 C2.31 0 4.62 0 7 0 C7 4.62 7 9.24 7 14 C7.66 14 8.32 14 9 14 C9 14.66 9 15.32 9 16 C6.03 16 3.06 16 0 16 C0 15.34 0 14.68 0 14 C0.66 14 1.32 14 2 14 C2 10.37 2 6.74 2 3 C1.34 3 0.68 3 0 3 C0 2.01 0 1.02 0 0 Z " fill="#67CEB9" transform="translate(172,141)"/>
<path d="M0 0 C2.31 0 4.62 0 7 0 C7 4.62 7 9.24 7 14 C7.66 14 8.32 14 9 14 C9 14.66 9 15.32 9 16 C6.03 16 3.06 16 0 16 C0 15.34 0 14.68 0 14 C0.66 14 1.32 14 2 14 C2 10.04 2 6.08 2 2 C1.34 2 0.68 2 0 2 C0 1.34 0 0.68 0 0 Z " fill="#65CDB8" transform="translate(266,96)"/>
<path d="M0 0 C1.32 0.33 2.64 0.66 4 1 C4 2.32 4 3.64 4 5 C1.36 5.66 -1.28 6.32 -4 7 C-4 8.65 -4 10.3 -4 12 C-4.99 12 -5.98 12 -7 12 C-7 11.34 -7 10.68 -7 10 C-9.31 10.33 -11.62 10.66 -14 11 C-14.66 9.68 -15.32 8.36 -16 7 C-13.03 7 -10.06 7 -7 7 C-7 5.35 -7 3.7 -7 2 C-6.01 1.67 -5.02 1.34 -4 1 C-4 1.99 -4 2.98 -4 4 C-2.68 4 -1.36 4 0 4 C0 2.68 0 1.36 0 0 Z " fill="#F1FAF8" transform="translate(275,143)"/>
<path d="M0 0 C2.31 0 4.62 0 7 0 C7 4.62 7 9.24 7 14 C7.66 14 8.32 14 9 14 C9 14.66 9 15.32 9 16 C6.03 16 3.06 16 0 16 C0 15.34 0 14.68 0 14 C0.99 14 1.98 14 3 14 C3 10.37 3 6.74 3 3 C2.01 3 1.02 3 0 3 C0 2.01 0 1.02 0 0 Z " fill="#5ECBB5" transform="translate(142,141)"/>
<path d="M0 0 C2.375 -0.125 2.375 -0.125 5 0 C7 2 7 2 7.1953125 4.8203125 C7.16050781 6.45613281 7.16050781 6.45613281 7.125 8.125 C7.10695313 9.22070312 7.08890625 10.31640625 7.0703125 11.4453125 C7.04710937 12.28835937 7.02390625 13.13140625 7 14 C7.99 14 8.98 14 10 14 C10 14.66 10 15.32 10 16 C7.03 16 4.06 16 1 16 C1 15.34 1 14.68 1 14 C1.66 14 2.32 14 3 14 C2.9129995 12.37399059 2.8048219 10.74910322 2.6875 9.125 C2.62949219 8.22007812 2.57148438 7.31515625 2.51171875 6.3828125 C2.2117961 3.63778399 2.2117961 3.63778399 -1 2 C-0.67 1.34 -0.34 0.68 0 0 Z " fill="#59C9B3" transform="translate(320,141)"/>
<path d="M0 0 C1.98 0 3.96 0 6 0 C6 4.62 6 9.24 6 14 C6.99 14 7.98 14 9 14 C9 14.66 9 15.32 9 16 C5.7 16 2.4 16 -1 16 C-1 15.34 -1 14.68 -1 14 C-0.01 14 0.98 14 2 14 C1.85866501 12.22880197 1.71176792 10.45804713 1.5625 8.6875 C1.44068359 7.20830078 1.44068359 7.20830078 1.31640625 5.69921875 C1.08187441 2.90624401 1.08187441 2.90624401 0 0 Z " fill="#5DCAB4" transform="translate(436,141)"/>
<path d="M0 0 C1.98 0 3.96 0 6 0 C6 4.62 6 9.24 6 14 C6.99 14 7.98 14 9 14 C9 14.66 9 15.32 9 16 C5.7 16 2.4 16 -1 16 C-1 15.34 -1 14.68 -1 14 C-0.01 14 0.98 14 2 14 C1.85866501 12.22880197 1.71176792 10.45804713 1.5625 8.6875 C1.44068359 7.20830078 1.44068359 7.20830078 1.31640625 5.69921875 C1.08187441 2.90624401 1.08187441 2.90624401 0 0 Z " fill="#5DCAB4" transform="translate(395,141)"/>
<path d="M0 0 C1.98 0 3.96 0 6 0 C6 4.62 6 9.24 6 14 C6.99 14 7.98 14 9 14 C9 14.66 9 15.32 9 16 C5.7 16 2.4 16 -1 16 C-1 15.34 -1 14.68 -1 14 C-0.01 14 0.98 14 2 14 C1.85866501 12.22880197 1.71176792 10.45804713 1.5625 8.6875 C1.44068359 7.20830078 1.44068359 7.20830078 1.31640625 5.69921875 C1.08187441 2.90624401 1.08187441 2.90624401 0 0 Z " fill="#5DCAB4" transform="translate(371,141)"/>
<path d="M0 0 C5.71428571 0.71428571 5.71428571 0.71428571 7 2 C7.04092937 4.33297433 7.04241723 6.66705225 7 9 C4.03 9 1.06 9 -2 9 C-1.125 1.125 -1.125 1.125 0 0 Z " fill="#67CEB9" transform="translate(472,141)"/>
<path d="M0 0 C5.71428571 0.71428571 5.71428571 0.71428571 7 2 C7.04092937 4.33297433 7.04241723 6.66705225 7 9 C4.03 9 1.06 9 -2 9 C-1.125 1.125 -1.125 1.125 0 0 Z " fill="#67CEB9" transform="translate(261,141)"/>
<path d="M0 0 C0.86625 0.3403125 0.86625 0.3403125 1.75 0.6875 C1.75 2.6675 1.75 4.6475 1.75 6.6875 C2.41 7.0175 3.07 7.3475 3.75 7.6875 C0.76787087 9.17856457 -1.96609658 8.80691467 -5.25 8.6875 C-6.25 7.6875 -6.25 7.6875 -6.5625 5.3125 C-6.25 2.6875 -6.25 2.6875 -4.5 0.8125 C-2.25 -0.3125 -2.25 -0.3125 0 0 Z " fill="#84D7C6" transform="translate(283.25,103.3125)"/>
<path d="M0 0 C1.4540625 0.0309375 1.4540625 0.0309375 2.9375 0.0625 C3.73703138 3.34946233 4.03408936 4.77273192 2.9375 8.0625 C0.0625 8.1875 0.0625 8.1875 -3.0625 8.0625 C-3.7225 7.4025 -4.3825 6.7425 -5.0625 6.0625 C-4.33395709 0.0884481 -4.33395709 0.0884481 0 0 Z " fill="#63CCB7" transform="translate(410.0625,148.9375)"/>
<path d="M0 0 C0 1.32 0 2.64 0 4 C-0.99 4.33 -1.98 4.66 -3 5 C-2.938125 6.175625 -2.938125 6.175625 -2.875 7.375 C-3 10 -3 10 -5 12 C-7.125 11.625 -7.125 11.625 -9 11 C-8.79375 10.071875 -8.5875 9.14375 -8.375 8.1875 C-7.63307034 4.84826598 -7.63307034 4.84826598 -10 2 C-6.38026598 0.68373308 -3.90432869 0 0 0 Z " fill="#61CCB6" transform="translate(170,139)"/>
<path d="M0 0 C1.65 0 3.3 0 5 0 C5 3.3 5 6.6 5 10 C3.35 10 1.7 10 0 10 C-1.36952673 7.26094655 -1.12621361 5.02912668 -1 2 C-0.67 1.34 -0.34 0.68 0 0 Z " fill="#F7FCFB" transform="translate(252,99)"/>
<path d="M0 0 C-0.99 0.66 -1.98 1.32 -3 2 C-2.49396008 4.16874252 -2.00016187 5.99967627 -1 8 C-2.99954746 8.04254356 -5.00041636 8.04080783 -7 8 C-8 7 -8 7 -8.0625 3.9375 C-8.041875 2.968125 -8.02125 1.99875 -8 1 C-5.29120665 -0.35439668 -2.99066732 -0.06501451 0 0 Z " fill="#5BCAB4" transform="translate(279,149)"/>
<path d="M0 0 C-0.99 0.66 -1.98 1.32 -3 2 C-2.49396008 4.16874252 -2.00016187 5.99967627 -1 8 C-2.99954746 8.04254356 -5.00041636 8.04080783 -7 8 C-8 7 -8 7 -8.0625 3.9375 C-8.041875 2.968125 -8.02125 1.99875 -8 1 C-5.29120665 -0.35439668 -2.99066732 -0.06501451 0 0 Z " fill="#5BCAB4" transform="translate(204,149)"/>
<path d="M0 0 C2.125 0.9375 2.125 0.9375 4 2 C3.01 4.64 2.02 7.28 1 10 C-1.12508244 6.81237635 -1.5020163 4.73487777 -2 1 C-1.34 0.67 -0.68 0.34 0 0 Z " fill="#F3FBF9" transform="translate(455,142)"/>
<path d="M0 0 C2.0625 0.4375 2.0625 0.4375 4 1 C3.67 2.98 3.34 4.96 3 7 C1.68 6.67 0.36 6.34 -1 6 C-1.042721 4.33388095 -1.04063832 2.66617115 -1 1 C-0.67 0.67 -0.34 0.34 0 0 Z " fill="#EDF9F6" transform="translate(159,143)"/>
<path d="M0 0 C1.65 0.33 3.3 0.66 5 1 C4.67 2.32 4.34 3.64 4 5 C2.35 4.67 0.7 4.34 -1 4 C-0.67 2.68 -0.34 1.36 0 0 Z " fill="#64CDB8" transform="translate(174,133)"/>
<path d="M0 0 C1.65 0.33 3.3 0.66 5 1 C4.67 2.32 4.34 3.64 4 5 C2.35 4.67 0.7 4.34 -1 4 C-0.67 2.68 -0.34 1.36 0 0 Z " fill="#64CDB8" transform="translate(268,88)"/>
<path d="M0 0 C0.99 0.33 1.98 0.66 3 1 C2.34 2.65 1.68 4.3 1 6 C-0.32 6 -1.64 6 -3 6 C-2.625 3.5625 -2.625 3.5625 -2 1 C-1.34 0.67 -0.68 0.34 0 0 Z " fill="#66CEB9" transform="translate(274,141)"/>
<path d="M0 0 C0.99 0.33 1.98 0.66 3 1 C2.34 2.65 1.68 4.3 1 6 C-0.32 6 -1.64 6 -3 6 C-2.625 3.5625 -2.625 3.5625 -2 1 C-1.34 0.67 -0.68 0.34 0 0 Z " fill="#66CEB9" transform="translate(199,141)"/>
<path d="M0 0 C1.32 0 2.64 0 4 0 C4 1.65 4 3.3 4 5 C2.35 4.67 0.7 4.34 -1 4 C-0.67 2.68 -0.34 1.36 0 0 Z " fill="#5DCBB5" transform="translate(438,133)"/>
<path d="M0 0 C1.32 0 2.64 0 4 0 C4 1.65 4 3.3 4 5 C2.35 4.67 0.7 4.34 -1 4 C-0.67 2.68 -0.34 1.36 0 0 Z " fill="#5DCBB5" transform="translate(397,133)"/>
<path d="M0 0 C1.32 0 2.64 0 4 0 C4 1.65 4 3.3 4 5 C2.35 4.67 0.7 4.34 -1 4 C-0.67 2.68 -0.34 1.36 0 0 Z " fill="#5DCBB5" transform="translate(373,133)"/>
<path d="M0 0 C2.475 0.495 2.475 0.495 5 1 C4.67 2.32 4.34 3.64 4 5 C2.68 5 1.36 5 0 5 C0 3.35 0 1.7 0 0 Z " fill="#5ECBB5" transform="translate(144,133)"/>
<path d="M0 0 C2.475 0.495 2.475 0.495 5 1 C5 1.66 5 2.32 5 3 C5.99 3.33 6.98 3.66 8 4 C4.37673261 5.2077558 3.35853631 4.54311128 0 3 C0 2.01 0 1.02 0 0 Z " fill="#E9F8F5" transform="translate(306,98)"/>
<path d="M0 0 C2.31 0 4.62 0 7 0 C7 0.99 7 1.98 7 3 C4.69 3 2.38 3 0 3 C0 2.01 0 1.02 0 0 Z " fill="#FBFDFD" transform="translate(157,158)"/>
<path d="M0 0 C1.98 0.495 1.98 0.495 4 1 C4 2.32 4 3.64 4 5 C2.35 5 0.7 5 -1 5 C-0.67 3.35 -0.34 1.7 0 0 Z " fill="#FBFDFD" transform="translate(275,143)"/>
<path d="M0 0 C1.32 0 2.64 0 4 0 C4 1.65 4 3.3 4 5 C2.68 5 1.36 5 0 5 C0 3.35 0 1.7 0 0 Z " fill="#F3FBF9" transform="translate(281,98)"/>
<path d="M0 0 C0.99 0 1.98 0 3 0 C2.67 2.31 2.34 4.62 2 7 C1.34 7 0.68 7 0 7 C-0.38133299 5.0085944 -0.71325582 3.00720923 -1 1 C-0.67 0.67 -0.34 0.34 0 0 Z " fill="#6CCFBC" transform="translate(296,88)"/>
<path d="M0 0 C1.32 0 2.64 0 4 0 C4 1.65 4 3.3 4 5 C3.01 5 2.02 5 1 5 C0.67 3.35 0.34 1.7 0 0 Z " fill="#6FD0BD" transform="translate(310,96)"/>
<path d="M0 0 C0.99 0 1.98 0 3 0 C2.67 1.65 2.34 3.3 2 5 C1.01 4.67 0.02 4.34 -1 4 C-0.67 2.68 -0.34 1.36 0 0 Z " fill="#E5F7F3" transform="translate(411,150)"/>
<path d="M0 0 C0.99 0 1.98 0 3 0 C2.67 1.65 2.34 3.3 2 5 C1.01 4.67 0.02 4.34 -1 4 C-0.67 2.68 -0.34 1.36 0 0 Z " fill="#E1F5F1" transform="translate(276,150)"/>
<path d="M0 0 C0.99 0 1.98 0 3 0 C2.67 1.65 2.34 3.3 2 5 C1.01 4.67 0.02 4.34 -1 4 C-0.67 2.68 -0.34 1.36 0 0 Z " fill="#E1F5F1" transform="translate(201,150)"/>
<path d="M0 0 C1.98 0.495 1.98 0.495 4 1 C4 1.99 4 2.98 4 4 C2.35 4 0.7 4 -1 4 C-0.67 2.68 -0.34 1.36 0 0 Z " fill="#F3FBF9" transform="translate(471,143)"/>
<path d="M0 0 C1.98 0.495 1.98 0.495 4 1 C4 1.99 4 2.98 4 4 C2.35 4 0.7 4 -1 4 C-0.67 2.68 -0.34 1.36 0 0 Z " fill="#F3FBF9" transform="translate(260,143)"/>
</svg>
