<svg xmlns="http://www.w3.org/2000/svg" width="78.848" height="64.004" viewBox="0 0 78.848 64.004">
  <g id="Layer_2_xA0_Image_1_" transform="translate(-40.666 -32.272)">
    <g id="Group_31666" data-name="Group 31666" transform="translate(40.666 32.272)">
      <g id="Group_31661" data-name="Group 31661" transform="translate(0 47.476)">
        <line id="Line_45" data-name="Line 45" x2="8.088" transform="translate(0 1.055)" fill="#f90303"/>
        <rect id="Rectangle_21874" data-name="Rectangle 21874" width="8.089" height="2.11" fill="#264488"/>
      </g>
      <path id="Path_27293" data-name="Path 27293" d="M54.909,86.254H47.7V46.782l8.707-8.707H81.46V34.382H50.6L42.776,42.2V80.8h-2.11V41.33l9.058-9.058H83.57v7.913H57.28l-7.47,7.47V84.144h5.1Z" transform="translate(-40.666 -32.272)" fill="#264488"/>
      <path id="Path_27294" data-name="Path 27294" d="M196.9,73.791h-2.11v-18.7h-5.144v-2.11H196.9Z" transform="translate(-147.908 -47.181)" fill="#264488"/>
      <rect id="Rectangle_21875" data-name="Rectangle 21875" width="2.11" height="9.144" transform="translate(8.44 1.055)" fill="#264488"/>
      <rect id="Rectangle_21876" data-name="Rectangle 21876" width="8.44" height="2.11" transform="translate(1.055 8.089)" fill="#264488"/>
      <rect id="Rectangle_21877" data-name="Rectangle 21877" width="2.11" height="8.88" transform="translate(15.122 6.858)" fill="#264488"/>
      <rect id="Rectangle_21878" data-name="Rectangle 21878" width="9.144" height="2.11" transform="translate(8.088 13.891)" fill="#264488"/>
      <rect id="Rectangle_21879" data-name="Rectangle 21879" width="12.836" height="2.11" transform="translate(20.221 13.891)" fill="#264488"/>
      <rect id="Rectangle_21880" data-name="Rectangle 21880" width="10.55" height="2.11" transform="translate(10.902 18.287)" fill="#264488"/>
      <rect id="Rectangle_21881" data-name="Rectangle 21881" width="10.902" height="2.11" transform="translate(24.089 18.287)" fill="#264488"/>
      <rect id="Rectangle_21882" data-name="Rectangle 21882" width="14.418" height="2.11" transform="translate(24.089 22.155)" fill="#264488"/>
      <rect id="Rectangle_21883" data-name="Rectangle 21883" width="2.462" height="2.11" transform="translate(10.902 22.155)" fill="#264488"/>
      <rect id="Rectangle_21884" data-name="Rectangle 21884" width="6" height="2.11" transform="translate(15.199 22.155)" fill="#264488"/>
      <rect id="Rectangle_21885" data-name="Rectangle 21885" width="13.188" height="2.11" transform="translate(10.902 26.727)" fill="#264488"/>
      <rect id="Rectangle_21886" data-name="Rectangle 21886" width="2.901" height="2.11" transform="translate(26.639 26.727)" fill="#264488"/>
      <path id="Path_27295" data-name="Path 27295" d="M265.982,160.308" transform="translate(-202.857 -124.437)" fill="none" stroke="red" stroke-width="3"/>
      <path id="Path_27296" data-name="Path 27296" d="M138.729,162.916H87.737v-29.76h17.806l8.308-8.308h23.823v2.11H114.725l-8.308,8.308H89.847v25.54h46.772V158.7h2.11Z" transform="translate(-74.55 -98.911)" fill="#264488"/>
      <rect id="Rectangle_21887" data-name="Rectangle 21887" width="4.044" height="14.067" transform="translate(38.508 40.794)" fill="#47c2c5"/>
      <rect id="Rectangle_21888" data-name="Rectangle 21888" width="14.77" height="4.044" transform="translate(33.057 45.893)" fill="#47c2c5"/>
      <rect id="Rectangle_21889" data-name="Rectangle 21889" width="2.022" height="2.022" transform="translate(17.495 38.86)" fill="#3dc7c9"/>
      <rect id="Rectangle_21890" data-name="Rectangle 21890" width="2.022" height="2.022" transform="translate(22.155 38.86)" fill="#3dc7c9"/>
      <rect id="Rectangle_21891" data-name="Rectangle 21891" width="2.022" height="2.022" transform="translate(26.331 38.86)" fill="#3dc7c9"/>
      <g id="Group_31662" data-name="Group 31662" transform="translate(59.33 38.815)">
        <ellipse id="Ellipse_69" data-name="Ellipse 69" cx="3.517" cy="3.022" rx="3.517" ry="3.022" fill="#3dc7c9"/>
        <ellipse id="Ellipse_70" data-name="Ellipse 70" cx="3.517" cy="3.022" rx="3.517" ry="3.022" transform="translate(12.484)" fill="#3dc7c9"/>
        <rect id="Rectangle_21892" data-name="Rectangle 21892" width="6.626" height="1.407" transform="translate(6.154 2.319)" fill="#3dc7c9"/>
      </g>
      <g id="Group_31663" data-name="Group 31663" transform="translate(59.33 52.509)">
        <ellipse id="Ellipse_71" data-name="Ellipse 71" cx="3.517" cy="3.022" rx="3.517" ry="3.022" transform="translate(0 0)" fill="#3dc7c9"/>
        <ellipse id="Ellipse_72" data-name="Ellipse 72" cx="3.517" cy="3.022" rx="3.517" ry="3.022" transform="translate(12.484 0)" fill="#3dc7c9"/>
        <rect id="Rectangle_21893" data-name="Rectangle 21893" width="6.626" height="1.407" transform="translate(6.154 2.319)" fill="#3dc7c9"/>
      </g>
      <g id="Group_31664" data-name="Group 31664" transform="translate(52.722 45.663)">
        <ellipse id="Ellipse_73" data-name="Ellipse 73" cx="3.517" cy="3.022" rx="3.517" ry="3.022" fill="#3dc7c9"/>
        <ellipse id="Ellipse_74" data-name="Ellipse 74" cx="3.517" cy="3.022" rx="3.517" ry="3.022" transform="translate(12.484)" fill="#3dc7c9"/>
        <rect id="Rectangle_21894" data-name="Rectangle 21894" width="6.626" height="1.407" transform="translate(6.154 2.319)" fill="#3dc7c9"/>
      </g>
      <g id="Group_31665" data-name="Group 31665" transform="translate(61.425 25.936)">
        <line id="Line_46" data-name="Line 46" y2="9.935" transform="translate(1.055)" fill="red"/>
        <rect id="Rectangle_21895" data-name="Rectangle 21895" width="2.11" height="9.935" fill="#264488"/>
      </g>
    </g>
  </g>
</svg>
